<mxfile host="app.diagrams.net" modified="2024-06-23T10:29:27.146Z" agent="Mozilla/5.0 (Macintosh; Intel Mac OS X 10_15_7) AppleWebKit/537.36 (KHTML, like Gecko) Chrome/126.0.0.0 Safari/537.36" version="24.6.2" etag="Th6FysQ60YXLnwgn8yWw" type="github">
  <diagram name="Page-1" id="psXY_mM2cdaBgUdIrDsP">
    <mxGraphModel>
      <root>
        <mxCell id="0" />
        <mxCell id="1" parent="0" />
      </root>
    </mxGraphModel>
  </diagram>
</mxfile>
